<svg width="252" height="258" viewBox="0 0 252 258" fill="none" xmlns="http://www.w3.org/2000/svg">
<rect y="14" width="252" height="202" rx="16" fill="url(#paint0_linear_1168_2)"/>
<g filter="url(#filter0_d_1168_2)">
<rect x="50" y="14" width="153" height="202" rx="32" fill="url(#paint1_linear_1168_2)"/>
</g>
<mask id="mask0_1168_2" style="mask-type:alpha" maskUnits="userSpaceOnUse" x="0" y="14" width="252" height="202">
<rect y="14" width="252" height="202" fill="url(#paint2_linear_1168_2)"/>
</mask>
<g mask="url(#mask0_1168_2)">
<circle cx="236" cy="189.552" r="85" fill="url(#paint3_linear_1168_2)"/>
</g>
<path d="M218.75 38.4032C218.75 39.1782 218.134 39.8065 217.375 39.8065C216.616 39.8065 216 39.1782 216 38.4032C216 37.6282 216.616 37 217.375 37C218.134 37 218.75 37.6282 218.75 38.4032Z" fill="white"/>
<path d="M225.167 38.4032C225.167 39.1782 224.551 39.8065 223.792 39.8065C223.032 39.8065 222.417 39.1782 222.417 38.4032C222.417 37.6282 223.032 37 223.792 37C224.551 37 225.167 37.6282 225.167 38.4032Z" fill="white"/>
<path d="M231.583 38.4032C231.583 39.1782 230.968 39.8065 230.208 39.8065C229.449 39.8065 228.833 39.1782 228.833 38.4032C228.833 37.6282 229.449 37 230.208 37C230.968 37 231.583 37.6282 231.583 38.4032Z" fill="white"/>
<path d="M238 38.4032C238 39.1782 237.384 39.8065 236.625 39.8065C235.866 39.8065 235.25 39.1782 235.25 38.4032C235.25 37.6282 235.866 37 236.625 37C237.384 37 238 37.6282 238 38.4032Z" fill="white"/>
<path d="M218.75 44.9516C218.75 45.7266 218.134 46.3548 217.375 46.3548C216.616 46.3548 216 45.7266 216 44.9516C216 44.1766 216.616 43.5484 217.375 43.5484C218.134 43.5484 218.75 44.1766 218.75 44.9516Z" fill="white"/>
<path d="M225.167 44.9516C225.167 45.7266 224.551 46.3548 223.792 46.3548C223.032 46.3548 222.417 45.7266 222.417 44.9516C222.417 44.1766 223.032 43.5484 223.792 43.5484C224.551 43.5484 225.167 44.1766 225.167 44.9516Z" fill="white"/>
<path d="M231.583 44.9516C231.583 45.7266 230.968 46.3548 230.208 46.3548C229.449 46.3548 228.833 45.7266 228.833 44.9516C228.833 44.1766 229.449 43.5484 230.208 43.5484C230.968 43.5484 231.583 44.1766 231.583 44.9516Z" fill="white"/>
<path d="M238 44.9516C238 45.7266 237.384 46.3548 236.625 46.3548C235.866 46.3548 235.25 45.7266 235.25 44.9516C235.25 44.1766 235.866 43.5484 236.625 43.5484C237.384 43.5484 238 44.1766 238 44.9516Z" fill="white"/>
<path d="M218.75 51.5C218.75 52.275 218.134 52.9032 217.375 52.9032C216.616 52.9032 216 52.275 216 51.5C216 50.725 216.616 50.0968 217.375 50.0968C218.134 50.0968 218.75 50.725 218.75 51.5Z" fill="white"/>
<path d="M225.167 51.5C225.167 52.275 224.551 52.9032 223.792 52.9032C223.032 52.9032 222.417 52.275 222.417 51.5C222.417 50.725 223.032 50.0968 223.792 50.0968C224.551 50.0968 225.167 50.725 225.167 51.5Z" fill="white"/>
<path d="M231.583 51.5C231.583 52.275 230.968 52.9032 230.208 52.9032C229.449 52.9032 228.833 52.275 228.833 51.5C228.833 50.725 229.449 50.0968 230.208 50.0968C230.968 50.0968 231.583 50.725 231.583 51.5Z" fill="white"/>
<path d="M238 51.5C238 52.275 237.384 52.9032 236.625 52.9032C235.866 52.9032 235.25 52.275 235.25 51.5C235.25 50.725 235.866 50.0968 236.625 50.0968C237.384 50.0968 238 50.725 238 51.5Z" fill="white"/>
<path d="M218.75 58.0484C218.75 58.8234 218.134 59.4516 217.375 59.4516C216.616 59.4516 216 58.8234 216 58.0484C216 57.2734 216.616 56.6452 217.375 56.6452C218.134 56.6452 218.75 57.2734 218.75 58.0484Z" fill="white"/>
<path d="M225.167 58.0484C225.167 58.8234 224.551 59.4516 223.792 59.4516C223.032 59.4516 222.417 58.8234 222.417 58.0484C222.417 57.2734 223.032 56.6452 223.792 56.6452C224.551 56.6452 225.167 57.2734 225.167 58.0484Z" fill="white"/>
<path d="M231.583 58.0484C231.583 58.8234 230.968 59.4516 230.208 59.4516C229.449 59.4516 228.833 58.8234 228.833 58.0484C228.833 57.2734 229.449 56.6452 230.208 56.6452C230.968 56.6452 231.583 57.2734 231.583 58.0484Z" fill="white"/>
<path d="M238 58.0484C238 58.8234 237.384 59.4516 236.625 59.4516C235.866 59.4516 235.25 58.8234 235.25 58.0484C235.25 57.2734 235.866 56.6452 236.625 56.6452C237.384 56.6452 238 57.2734 238 58.0484Z" fill="white"/>
<path d="M218.75 64.5968C218.75 65.3718 218.134 66 217.375 66C216.616 66 216 65.3718 216 64.5968C216 63.8218 216.616 63.1935 217.375 63.1935C218.134 63.1935 218.75 63.8218 218.75 64.5968Z" fill="white"/>
<path d="M225.167 64.5968C225.167 65.3718 224.551 66 223.792 66C223.032 66 222.417 65.3718 222.417 64.5968C222.417 63.8218 223.032 63.1935 223.792 63.1935C224.551 63.1935 225.167 63.8218 225.167 64.5968Z" fill="white"/>
<path d="M231.583 64.5968C231.583 65.3718 230.968 66 230.208 66C229.449 66 228.833 65.3718 228.833 64.5968C228.833 63.8218 229.449 63.1935 230.208 63.1935C230.968 63.1935 231.583 63.8218 231.583 64.5968Z" fill="white"/>
<path d="M238 64.5968C238 65.3718 237.384 66 236.625 66C235.866 66 235.25 65.3718 235.25 64.5968C235.25 63.8218 235.866 63.1935 236.625 63.1935C237.384 63.1935 238 63.8218 238 64.5968Z" fill="white"/>
<defs>
<filter id="filter0_d_1168_2" x="22" y="0" width="209" height="258" filterUnits="userSpaceOnUse" color-interpolation-filters="sRGB">
<feFlood flood-opacity="0" result="BackgroundImageFix"/>
<feColorMatrix in="SourceAlpha" type="matrix" values="0 0 0 0 0 0 0 0 0 0 0 0 0 0 0 0 0 0 127 0" result="hardAlpha"/>
<feOffset dy="14"/>
<feGaussianBlur stdDeviation="14"/>
<feColorMatrix type="matrix" values="0 0 0 0 0.941176 0 0 0 0 0.784314 0 0 0 0 0.407843 0 0 0 0.31 0"/>
<feBlend mode="normal" in2="BackgroundImageFix" result="effect1_dropShadow_1168_2"/>
<feBlend mode="normal" in="SourceGraphic" in2="effect1_dropShadow_1168_2" result="shape"/>
</filter>
<linearGradient id="paint0_linear_1168_2" x1="126" y1="14" x2="269.182" y2="220.49" gradientUnits="userSpaceOnUse">
<stop stop-color="#F8B602"/>
<stop offset="1" stop-color="#F0C868"/>
<stop offset="1" stop-color="#F0C868" stop-opacity="0"/>
</linearGradient>
<linearGradient id="paint1_linear_1168_2" x1="126.5" y1="14" x2="278.047" y2="146.694" gradientUnits="userSpaceOnUse">
<stop stop-color="#F8B602"/>
<stop offset="1" stop-color="#F0C868"/>
<stop offset="1" stop-color="#F0C868" stop-opacity="0"/>
</linearGradient>
<linearGradient id="paint2_linear_1168_2" x1="126" y1="14" x2="269.182" y2="220.49" gradientUnits="userSpaceOnUse">
<stop stop-color="#5ECFFF"/>
<stop offset="1" stop-color="#64F6FF"/>
</linearGradient>
<linearGradient id="paint3_linear_1168_2" x1="197" y1="-43.5" x2="236" y2="274.552" gradientUnits="userSpaceOnUse">
<stop stop-color="white"/>
<stop offset="0.107292" stop-color="white" stop-opacity="0.892708"/>
<stop offset="1" stop-color="white" stop-opacity="0"/>
<stop offset="1" stop-color="white" stop-opacity="0"/>
</linearGradient>
</defs>
</svg>
